<?xml version="1.0" standalone="no"?>
<!DOCTYPE svg PUBLIC "-//W3C//DTD SVG 20010904//EN"
 "http://www.w3.org/TR/2001/REC-SVG-20010904/DTD/svg10.dtd">
<svg version="1.0" xmlns="http://www.w3.org/2000/svg"
 width="7000.000000pt" height="3000.000000pt" viewBox="0 0 7000.000000 3000.000000"
 preserveAspectRatio="xMidYMid meet">

<g transform="translate(0.000000,3000.000000) scale(0.100000,-0.100000)"
fill="#000000" stroke="none">
<path d="M13494 22020 c-92 -19 -202 -98 -239 -170 -9 -17 -19 -54 -22 -83 -3
-29 -16 -73 -29 -99 -46 -91 -22 -198 58 -262 21 -16 40 -27 43 -25 2 3 -2 23
-10 44 -8 22 -14 64 -15 93 l0 52 38 -19 c97 -50 169 -49 256 4 l54 32 7 -56
c9 -70 37 -147 69 -186 32 -40 44 -27 57 61 5 38 18 80 28 94 44 60 140 17
128 -57 -4 -20 -20 -53 -37 -74 -16 -21 -30 -45 -30 -54 0 -42 90 -175 119
-175 10 0 42 21 70 46 125 113 161 318 89 515 -60 164 -130 234 -227 227 -40
-2 -54 2 -85 26 -79 59 -219 88 -322 66z"/>
<path d="M27096 21985 c-47 -17 -94 -59 -112 -102 -12 -27 -14 -238 -14 -1248
0 -1200 0 -1216 20 -1255 11 -22 39 -52 62 -67 l42 -28 1845 -3 c1015 -2 1865
0 1889 3 51 7 117 61 139 112 11 27 13 250 13 1238 0 1066 -2 1210 -15 1243
-19 44 -49 78 -90 100 -28 16 -180 17 -1885 19 -1558 2 -1861 0 -1894 -12z
m3704 -1345 l0 -1140 -1825 0 -1825 0 0 1140 0 1140 1825 0 1825 0 0 -1140z"/>
<path d="M28430 20549 c0 -303 4 -549 8 -547 17 7 634 324 707 363 44 23 145
75 224 115 l143 72 -153 80 c-85 43 -296 151 -469 240 -173 88 -343 176 -377
194 -34 19 -67 34 -73 34 -6 0 -10 -185 -10 -551z"/>
<path d="M43440 21903 c-86 -30 -162 -99 -209 -190 -38 -75 -51 -149 -51 -290
0 -169 -11 -220 -61 -283 -45 -57 -106 -95 -237 -147 -116 -46 -190 -105 -257
-203 -59 -87 -95 -187 -102 -285 -4 -54 1 -96 22 -185 53 -226 37 -300 -82
-381 -146 -98 -247 -251 -300 -450 -22 -86 -22 -244 1 -329 60 -225 252 -407
511 -486 81 -25 107 -28 263 -30 l174 -2 54 -66 c93 -113 238 -205 393 -249
74 -21 91 -22 576 -21 337 1 578 6 740 17 l240 16 26 31 c31 37 126 216 164
310 43 106 99 304 108 378 l5 42 -159 0 -159 0 0 45 0 45 45 -22 c24 -12 46
-20 48 -17 5 6 497 1196 497 1201 0 11 -142 60 -150 52 -4 -5 -112 -256 -240
-559 -128 -302 -237 -560 -243 -572 -10 -22 -15 -23 -143 -23 -87 0 -135 -4
-140 -11 -4 -7 -20 -9 -39 -6 -27 4 -34 2 -38 -14 -7 -26 -40 -24 -106 6 -45
21 -59 24 -90 15 -20 -5 -53 -10 -74 -10 -32 0 -37 3 -33 18 3 9 10 38 17 65
9 37 17 49 35 53 31 8 30 18 0 32 -46 21 -191 119 -267 180 -65 52 -83 74
-116 139 -22 43 -48 98 -57 123 -16 43 -16 48 4 105 12 33 24 87 27 120 l5 61
-138 282 c-77 155 -145 282 -152 282 -15 0 -247 75 -296 95 l-34 14 42 122
c42 120 42 121 82 135 42 14 90 64 100 103 4 13 -1 47 -10 76 -24 77 -21 131
9 160 45 46 63 26 80 -82 4 -24 11 -43 16 -43 23 0 69 110 94 223 l6 28 58
-54 c82 -75 138 -100 218 -95 51 3 69 9 100 34 34 27 103 116 103 133 0 3 -12
7 -26 7 -36 3 -75 43 -120 126 -52 95 -122 171 -190 204 -48 23 -61 26 -121
20 -104 -10 -104 -10 -168 7 -74 21 -196 21 -255 0z"/>
<path d="M58120 21181 c-652 -262 -1190 -479 -1196 -483 -6 -4 -14 -31 -17
-60 -3 -29 -24 -201 -47 -381 -23 -181 -40 -330 -37 -333 4 -5 451 267 471
286 5 5 -38 65 -97 137 -58 70 -102 131 -98 136 4 4 151 83 327 175 175 93
668 352 1094 577 874 460 808 425 795 423 -5 0 -543 -215 -1195 -477z"/>
<path d="M37598 21344 c-129 -31 -236 -111 -279 -209 -14 -30 -24 -79 -27
-122 l-5 -73 161 0 160 0 4 65 c3 50 9 70 28 90 67 71 190 17 190 -84 0 -52
-19 -82 -109 -175 -49 -50 -94 -101 -100 -113 -6 -12 -11 -47 -11 -77 l0 -56
145 0 c140 0 145 1 145 21 0 35 18 56 98 117 157 120 198 188 190 315 -13 198
-179 318 -438 316 -52 0 -121 -7 -152 -15z"/>
<path d="M50026 20989 c-126 -17 -271 -50 -296 -68 -31 -23 -39 -75 -14 -102
22 -24 48 -24 167 1 53 10 146 25 209 32 94 10 116 15 135 34 28 29 29 54 2
88 -18 23 -27 26 -77 25 -31 -1 -88 -6 -126 -10z"/>
<path d="M50563 20980 c-43 -18 -56 -73 -25 -109 12 -15 45 -26 122 -41 58
-12 156 -38 219 -60 106 -36 116 -38 142 -24 62 31 47 103 -28 135 -64 27
-229 76 -305 89 -35 6 -72 13 -83 15 -11 2 -30 0 -42 -5z"/>
<path d="M14148 20852 c-9 -21 -100 -82 -151 -101 -80 -29 -115 -27 -207 13
-11 5 -24 -8 -47 -46 -41 -70 -62 -142 -73 -258 -20 -218 -211 -826 -266 -847
-20 -7 -216 37 -499 113 -110 30 -212 57 -226 60 -24 6 -27 2 -54 -78 -15 -45
-36 -102 -46 -125 l-18 -43 47 -24 47 -24 -41 -7 -42 -7 -8 -117 c-4 -64 -8
-120 -9 -126 0 -9 233 -31 370 -35 l50 -1 -37 -19 c-41 -22 -84 -79 -205 -270
-82 -129 -373 -608 -373 -614 0 -1 -71 -124 -159 -272 -149 -252 -158 -270
-143 -287 16 -18 13 -22 -35 -68 l-52 -49 -68 0 c-37 1 -97 7 -133 15 -75 17
-168 19 -203 6 -64 -25 -86 -93 -44 -135 46 -46 402 -152 597 -178 l93 -12 22
28 c13 16 36 68 51 115 35 104 30 97 49 81 9 -7 17 -11 19 -9 1 2 18 27 36 54
19 28 46 66 60 85 15 19 94 131 175 248 81 117 151 209 155 205 4 -4 19 -69
34 -143 30 -150 99 -454 182 -810 78 -336 70 -311 102 -308 l27 3 0 -77 c0
-72 -2 -79 -30 -108 -16 -18 -64 -55 -105 -82 -87 -59 -146 -112 -166 -150
-36 -68 5 -146 71 -135 104 17 522 251 599 336 26 28 17 73 -34 180 -40 83
-41 91 -8 103 4 2 -8 163 -26 358 -37 382 -74 839 -78 960 l-3 75 835 5 835 5
47 23 c174 86 291 394 233 612 -8 30 -15 58 -15 61 0 4 18 19 40 34 22 15 40
33 40 40 0 21 -109 352 -177 535 -127 346 -262 639 -364 786 -97 140 -242 266
-396 343 -99 49 -267 100 -275 83z m-160 -1479 c6 -20 10 -39 8 -41 -3 -2 -23
-6 -46 -9 l-41 -6 25 38 c14 21 26 42 26 46 0 23 18 5 28 -28z"/>
<path d="M49280 20776 c-122 -53 -303 -147 -327 -169 -45 -40 -16 -117 43
-117 15 0 63 20 108 44 45 24 131 65 191 92 61 26 118 54 128 63 25 20 22 75
-5 101 -29 27 -49 25 -138 -14z"/>
<path d="M51297 20652 c-26 -29 -22 -78 10 -105 124 -103 188 -160 249 -220
77 -74 107 -85 144 -52 51 46 33 83 -97 204 -199 183 -264 220 -306 173z"/>
<path d="M37590 20325 l0 -155 170 0 170 0 0 155 0 155 -170 0 -170 0 0 -155z"/>
<path d="M63367 20373 c3 -27 14 -160 26 -298 l22 -250 33 -3 c17 -2 32 1 32
5 0 5 13 130 30 278 16 149 30 280 30 293 0 21 -3 22 -89 22 l-88 0 4 -47z"/>
<path d="M48570 20378 c-119 -83 -268 -194 -297 -221 -39 -36 -43 -77 -13
-107 34 -34 70 -25 147 35 39 30 120 89 179 131 113 78 137 105 127 139 -17
62 -73 71 -143 23z"/>
<path d="M6192 20310 c-65 -14 -142 -60 -170 -103 -18 -27 -27 -57 -30 -98
l-4 -59 101 0 101 0 0 40 c0 27 7 47 20 60 53 53 138 -11 111 -82 -5 -14 -37
-52 -70 -86 -56 -57 -61 -66 -61 -107 l0 -45 90 0 c82 0 90 2 90 19 0 12 28
42 71 78 40 32 80 74 90 93 22 41 25 117 5 163 -18 44 -86 101 -138 117 -56
16 -152 21 -206 10z"/>
<path d="M22220 20110 l0 -120 125 0 125 0 0 120 0 120 -125 0 -125 0 0 -120z"/>
<path d="M22610 20110 l0 -121 128 3 127 3 0 115 0 115 -127 3 -128 3 0 -121z"/>
<path d="M23010 20225 c-1 -3 -1 -56 -1 -117 l-1 -113 126 -3 126 -3 0 121 0
120 -125 0 c-69 0 -125 -2 -125 -5z"/>
<path d="M51874 20057 c-16 -14 -26 -33 -26 -48 0 -22 172 -300 242 -391 37
-48 102 -34 124 26 8 23 -26 85 -141 256 -102 153 -103 154 -130 168 -30 17
-38 15 -69 -11z"/>
<path d="M56524 19838 c-147 -149 -234 -256 -234 -287 0 -37 34 -71 69 -71 24
0 44 16 108 88 43 48 115 127 160 176 91 97 99 121 58 161 -41 42 -62 34 -161
-67z"/>
<path d="M47892 19839 c-37 -34 -113 -107 -169 -162 -88 -86 -103 -105 -103
-132 0 -40 27 -65 68 -65 28 0 55 22 202 162 182 174 195 193 150 238 -37 37
-74 26 -148 -41z"/>
<path d="M6177 19764 c-4 -4 -7 -49 -7 -101 l0 -93 110 0 111 0 -3 98 -3 97
-101 3 c-55 1 -103 0 -107 -4z"/>
<path d="M63360 19690 l0 -80 85 0 85 0 0 80 0 80 -85 0 -85 0 0 -80z"/>
<path d="M52305 19345 c-14 -13 -25 -33 -25 -45 0 -27 204 -400 231 -422 12
-10 29 -18 39 -18 29 0 70 39 70 68 0 32 -192 389 -226 420 -32 29 -59 28 -89
-3z"/>
<path d="M47308 19251 c-109 -115 -246 -278 -253 -301 -11 -34 24 -74 67 -78
33 -3 40 2 138 115 57 65 128 144 157 175 62 67 70 103 27 137 -44 35 -66 27
-136 -48z"/>
<path d="M56072 19287 c-13 -6 -84 -91 -158 -187 -118 -154 -134 -179 -132
-209 2 -24 11 -40 30 -54 25 -19 30 -19 57 -6 40 19 301 360 301 392 0 50 -56
87 -98 64z"/>
<path d="M46839 18676 c-28 -13 -156 -180 -165 -214 -8 -27 23 -75 50 -80 40
-8 65 11 130 99 90 122 95 133 70 166 -26 34 -55 44 -85 29z"/>
<path d="M52701 18614 c-33 -42 -31 -48 47 -169 184 -285 199 -303 247 -291
29 7 58 57 48 83 -3 10 -21 38 -38 63 -18 25 -67 104 -110 175 -43 72 -87 138
-98 148 -29 26 -72 22 -96 -9z"/>
<path d="M55547 18618 c-13 -13 -55 -61 -93 -108 -38 -47 -97 -118 -131 -158
-50 -58 -63 -80 -63 -106 0 -40 26 -66 66 -66 36 0 59 23 218 215 129 156 140
184 90 224 -34 27 -57 26 -87 -1z"/>
<path d="M55020 18013 c-8 -4 -46 -35 -85 -71 -38 -36 -114 -99 -168 -140
-101 -79 -118 -103 -101 -151 14 -38 56 -50 97 -26 50 29 184 136 270 215 66
62 77 76 77 105 0 49 -47 84 -90 68z"/>
<path d="M53195 17945 c-14 -13 -25 -35 -25 -48 0 -53 327 -327 389 -327 25 0
71 42 71 64 0 32 -16 49 -99 106 -47 32 -128 97 -179 144 -53 50 -101 86 -113
86 -11 0 -31 -11 -44 -25z"/>
<path d="M54305 17559 c-59 -17 -183 -22 -284 -9 -83 10 -104 10 -117 -1 -45
-37 -34 -99 20 -120 17 -6 94 -14 170 -16 161 -6 269 8 304 40 30 28 29 70 -4
96 -29 23 -43 24 -89 10z"/>
<path d="M46010 17315 c0 -5 5 -17 10 -25 5 -8 10 -10 10 -5 0 6 -5 17 -10 25
-5 8 -10 11 -10 5z"/>
<path d="M46031 17255 c1 -19 18 -51 18 -35 0 8 -4 22 -9 30 -5 8 -9 11 -9 5z"/>
<path d="M46091 17065 c1 -19 18 -51 18 -35 0 8 -4 22 -9 30 -5 8 -9 11 -9 5z"/>
<path d="M46111 17005 c1 -19 18 -51 18 -35 0 8 -4 22 -9 30 -5 8 -9 11 -9 5z"/>
<path d="M46258 16921 l-108 -7 -79 -74 c-43 -41 -79 -84 -80 -95 -3 -57 103
-205 148 -205 87 0 573 231 677 322 32 28 34 32 19 47 -13 14 -49 16 -243 17
-125 1 -275 -1 -334 -5z"/>
<path d="M44664 16832 c-57 -42 -111 -105 -119 -141 -13 -60 84 -190 314 -424
158 -161 231 -213 243 -175 14 40 -50 266 -141 503 l-58 150 -94 57 c-52 31
-97 57 -100 57 -3 1 -24 -12 -45 -27z"/>
<path d="M40799 15865 c-30 -10 -72 -38 -119 -80 -86 -77 -135 -97 -175 -71
-15 10 -30 15 -33 11 -14 -13 -4 -113 15 -157 26 -57 88 -127 130 -145 90 -37
276 15 435 122 29 19 56 35 60 35 5 0 8 -37 8 -82 0 -141 37 -273 75 -273 15
0 21 9 27 42 14 82 45 105 84 62 26 -28 21 -89 -12 -156 -25 -52 -31 -57 -111
-96 -120 -57 -166 -59 -263 -13 -84 41 -108 43 -214 20 -88 -20 -86 -16 -86
-188 0 -128 17 -200 54 -236 22 -20 32 -22 80 -17 117 12 333 123 459 238 39
34 78 60 105 68 70 20 126 80 160 169 103 268 101 523 -3 635 -85 90 -254 132
-331 82 -18 -12 -27 -10 -72 12 -66 32 -201 41 -273 18z m86 -903 c62 3 65 -6
15 -39 -46 -32 -103 -31 -135 2 -41 40 -33 54 20 43 25 -5 70 -8 100 -6z"/>
<path d="M51486 15475 c-245 -70 -373 -253 -392 -559 -12 -181 -69 -251 -371
-455 -136 -92 -188 -145 -236 -241 -26 -52 -33 -79 -36 -143 -4 -96 9 -148 64
-253 l42 -80 -34 -53 c-185 -288 -364 -765 -364 -973 -1 -146 108 -280 364
-451 56 -38 103 -72 105 -76 1 -4 -13 -42 -33 -83 -19 -42 -35 -81 -35 -87 0
-8 120 -11 387 -11 385 0 386 0 368 20 -20 22 -50 25 -89 10 -26 -10 -195 5
-207 18 -4 4 7 36 25 71 21 45 37 65 51 67 11 1 72 25 135 53 168 74 164 74
257 5 96 -73 203 -172 203 -189 0 -22 -25 -24 -67 -5 l-41 18 22 -34 21 -33
323 -1 323 0 -41 60 c-59 88 -97 172 -111 251 -11 60 -10 87 6 192 24 163 76
384 126 537 23 69 43 127 45 129 2 2 7 -5 10 -15 4 -10 45 -109 92 -219 109
-258 193 -433 229 -475 53 -64 225 -127 570 -209 205 -49 549 -121 577 -121 8
0 19 15 25 33 13 39 70 261 68 263 -1 0 -95 37 -208 82 -297 117 -542 223
-634 273 l-80 44 -60 120 c-66 132 -210 464 -304 703 -33 84 -73 176 -88 204
-41 77 -126 157 -223 211 -85 47 -85 48 -112 115 -15 37 -44 108 -65 157 l-38
90 1 140 c0 77 9 200 19 273 20 153 17 311 -9 382 -35 94 -135 189 -244 231
-73 28 -260 36 -336 14z m498 -461 c35 -15 46 -25 50 -48 23 -113 -25 -305
-101 -404 -30 -40 -79 -72 -110 -72 -29 0 -30 -23 -4 -82 16 -39 73 -90 169
-154 5 -3 -79 -310 -88 -325 -5 -7 -38 14 -94 60 -48 39 -91 71 -96 71 -5 0
-50 -34 -101 -76 -60 -50 -94 -73 -101 -66 -5 5 -49 74 -98 153 l-88 144 61
66 c34 37 67 67 74 68 7 0 54 -38 105 -85 l93 -86 -92 90 -92 91 29 63 c34 76
55 179 41 205 -5 10 -17 39 -26 65 -9 26 -38 77 -65 114 -57 77 -73 122 -58
164 12 35 40 46 77 31 35 -15 51 -42 58 -102 5 -41 9 -49 27 -49 33 0 43 12
49 58 7 56 36 87 112 122 33 15 75 43 93 63 l33 34 49 -47 c27 -26 69 -56 94
-66z m-1200 -2134 c-12 -146 -23 -274 -24 -285 -1 -18 -4 -16 -26 10 -13 17
-45 60 -71 97 -41 60 -45 70 -39 104 10 49 171 355 181 342 1 -2 -8 -122 -21
-268z"/>
<path d="M51815 14310 c-9 -16 -13 -30 -11 -30 3 0 12 14 21 30 9 17 13 30 11
30 -3 0 -12 -13 -21 -30z"/>
<path d="M51780 14250 c-6 -11 -8 -20 -6 -20 3 0 10 9 16 20 6 11 8 20 6 20
-3 0 -10 -9 -16 -20z"/>
<path d="M51750 14200 c-6 -11 -8 -20 -6 -20 3 0 10 9 16 20 6 11 8 20 6 20
-3 0 -10 -9 -16 -20z"/>
<path d="M51689 14147 c14 -15 25 -26 26 -24 1 1 8 13 14 27 11 23 11 24 -3 6
-15 -19 -16 -19 -38 0 -21 17 -21 17 1 -9z"/>
<path d="M18950 15081 c-39 -15 -86 -21 -165 -24 -134 -3 -194 -27 -273 -107
-113 -114 -133 -216 -87 -445 46 -234 26 -364 -72 -461 -29 -30 -63 -48 -143
-77 -185 -66 -243 -118 -263 -230 -9 -53 -8 -80 6 -150 29 -148 34 -135 -87
-245 -26 -23 -57 -64 -68 -90 -29 -66 -35 -166 -13 -235 l17 -55 -34 -53 c-67
-106 -136 -235 -154 -289 -27 -80 -25 -217 5 -292 25 -64 79 -125 134 -151 38
-19 201 -37 331 -37 l69 0 -7 -40 -6 -40 589 0 589 0 7 40 7 40 78 0 78 0 6
78 c4 42 9 96 12 118 5 41 5 41 -33 48 -21 3 -50 6 -65 6 -15 0 -30 5 -33 10
-7 12 26 230 35 230 4 0 16 -17 28 -37 26 -46 117 -154 155 -183 l28 -22 107
52 c127 62 196 90 220 90 22 -1 261 -179 336 -251 32 -32 56 -63 54 -71 -7
-22 -66 -21 -104 1 -48 29 -50 27 -13 -18 31 -40 34 -71 6 -71 -7 0 -36 11
-63 25 -27 14 -51 25 -52 25 -2 0 8 -14 22 -31 47 -56 21 -84 -46 -49 -48 25
-48 25 -48 -5 l0 -25 655 0 655 0 0 85 0 85 -446 0 c-420 0 -445 1 -440 18 9
29 35 146 33 147 -1 1 -90 30 -197 64 -214 69 -388 137 -448 175 -58 36 -85
74 -151 209 -85 174 -291 667 -291 697 0 5 -17 26 -38 47 -28 29 -49 67 -82
153 l-44 115 -59 1 c-58 1 -58 1 -52 -25 3 -14 15 -44 25 -66 40 -85 33 -217
-14 -272 -21 -24 -23 -25 -52 -10 -53 28 -217 214 -283 321 -22 35 -22 38 -6
56 47 52 55 142 26 283 -11 50 -23 112 -27 137 -8 57 -19 77 -44 85 -24 8 -50
54 -50 90 0 39 18 65 53 80 55 23 84 -10 106 -117 12 -54 47 -108 71 -108 6 0
9 40 8 118 -3 104 0 124 21 175 13 31 25 57 27 57 1 0 16 -12 31 -26 43 -40
107 -74 170 -92 61 -17 275 -23 290 -8 13 13 16 160 4 218 -30 144 -129 264
-266 323 -64 27 -207 30 -275 6z m-673 -2387 c13 -4 22 -12 20 -18 -3 -7 -13
-40 -22 -74 -16 -56 -20 -62 -44 -62 -43 0 -76 23 -73 50 4 38 62 122 79 115
8 -3 26 -8 40 -11z"/>
<path d="M27465 15010 c-76 -9 -87 -12 -221 -71 -143 -63 -214 -65 -214 -7 0
25 -13 23 -49 -8 -30 -25 -51 -76 -51 -125 0 -45 29 -124 61 -169 l32 -44 -2
-144 -2 -143 24 16 c33 21 61 7 113 -59 75 -95 87 -73 59 103 -9 52 -14 95
-12 97 1 2 27 -4 56 -13 41 -12 83 -14 175 -10 138 5 214 27 293 83 46 33 48
33 57 14 6 -13 3 -57 -7 -122 -32 -200 -32 -208 -9 -208 14 0 36 19 63 55 58
77 83 89 115 58 16 -16 16 -8 12 147 -6 181 -26 273 -72 327 -13 16 -29 47
-35 69 -11 42 -57 92 -106 117 -64 31 -187 47 -280 37z"/>
<path d="M37785 14891 c-137 -23 -228 -64 -289 -132 -24 -27 -47 -62 -51 -77
-4 -21 -14 -31 -38 -38 -21 -6 -38 -21 -50 -44 -64 -122 71 -523 231 -692 42
-44 69 -48 101 -14 21 22 23 32 20 115 l-4 91 -47 43 c-60 55 -64 91 -17 131
17 14 36 26 43 26 38 0 71 -56 91 -157 6 -31 55 -83 77 -83 6 0 19 7 29 16 16
15 16 18 -6 67 -31 68 -54 156 -61 238 l-7 66 69 -14 c105 -23 207 -13 289 28
118 58 177 139 161 221 -11 55 -19 63 -49 43 -38 -25 -85 -6 -162 66 -34 33
-82 68 -107 79 -51 22 -153 32 -223 21z"/>
<path d="M44845 14851 c-39 -10 -74 -28 -102 -54 l-22 -20 -58 26 c-84 37
-129 47 -211 47 -104 0 -171 -22 -231 -76 -146 -132 -114 -301 72 -379 86 -36
234 -29 335 15 l43 19 -8 -62 c-19 -154 -4 -238 39 -222 24 10 31 31 38 127 5
73 10 91 30 113 33 35 81 34 110 -2 34 -43 23 -103 -28 -156 -30 -31 -42 -54
-47 -87 -4 -25 -16 -67 -26 -95 -11 -27 -19 -51 -19 -52 0 -1 14 -10 32 -19
24 -13 47 -15 95 -11 96 9 117 25 143 104 12 38 41 109 64 158 38 83 41 97 40
170 0 64 -6 93 -27 142 -15 34 -27 80 -27 101 0 67 -11 100 -47 142 -53 62
-120 87 -188 71z"/>
<path d="M41162 14570 c-67 -60 -119 -110 -116 -110 4 0 45 35 92 78 47 42
101 91 121 109 20 18 33 32 30 33 -3 0 -60 -49 -127 -110z"/>
<path d="M40830 14626 c0 -2 8 -10 18 -17 15 -13 16 -12 3 4 -13 16 -21 21
-21 13z"/>
<path d="M40870 14596 c0 -3 27 -26 60 -51 33 -25 60 -44 60 -41 0 3 -27 26
-60 51 -33 25 -60 44 -60 41z"/>
<path d="M41370 14558 c-8 -18 -46 -99 -86 -180 -40 -81 -105 -225 -145 -320
-39 -95 -76 -177 -82 -183 -6 -7 -7 22 -3 84 3 52 6 130 6 173 l0 79 45 48 45
48 -50 47 c-31 29 -55 44 -63 40 -6 -4 -36 -25 -64 -47 l-53 -39 34 -42 34
-41 -29 -154 c-15 -84 -30 -155 -32 -157 -2 -2 -16 62 -31 143 -15 82 -50 230
-78 331 -42 150 -54 182 -67 177 -9 -2 -59 -13 -112 -24 -183 -38 -304 -72
-344 -98 -125 -82 -288 -299 -416 -553 -101 -201 -188 -362 -207 -383 -15 -17
-17 -16 -35 19 -17 33 -262 598 -341 786 l-29 67 -36 -15 c-20 -9 -93 -38
-163 -65 l-127 -50 15 -52 c48 -165 154 -495 209 -647 53 -147 79 -212 142
-357 4 -9 -78 -13 -356 -15 l-361 -3 -27 -28 -28 -27 0 -625 0 -625 27 -26
c19 -20 39 -28 77 -32 46 -4 51 -7 51 -28 l0 -24 1633 0 1632 0 19 43 c10 23
25 50 33 60 19 21 4 23 -23 2 -21 -16 -60 -20 -68 -6 -4 5 6 23 20 40 28 34
23 38 -16 16 -14 -8 -36 -14 -49 -15 -18 0 -22 4 -18 20 5 19 0 20 -74 20
l-79 0 0 66 c0 73 -47 1358 -53 1442 -2 28 -1 52 2 52 3 -1 39 -48 80 -106
174 -248 395 -500 495 -563 98 -61 137 -40 290 154 115 146 320 465 515 800
52 88 99 169 107 181 12 20 6 26 -104 106 -64 47 -129 92 -143 102 l-26 16
-79 -122 c-209 -327 -435 -655 -464 -673 -16 -10 -23 3 -61 110 -178 503 -286
740 -377 830 -24 24 -84 59 -172 99 -74 35 -175 83 -225 107 -49 24 -93 45
-96 47 -4 1 -12 -12 -19 -30z m-1146 -1262 l-7 -116 -85 0 c-81 0 -84 1 -71
19 77 106 164 219 167 217 1 -2 0 -56 -4 -120z m-645 -732 c65 -54 22 -164
-64 -164 -51 0 -95 44 -95 95 0 27 8 44 29 66 39 38 87 39 130 3z"/>
<path d="M34234 14556 c-110 -35 -252 -136 -344 -247 -63 -75 -91 -131 -120
-234 -37 -131 -68 -182 -166 -271 -117 -105 -132 -121 -156 -174 -33 -70 -35
-162 -7 -277 14 -59 23 -128 23 -173 0 -73 -2 -78 -70 -208 l-69 -133 1 -137
c1 -206 33 -302 127 -389 63 -59 118 -83 195 -90 51 -4 81 -1 125 14 l57 20 0
-91 c0 -202 -50 -590 -101 -795 -37 -144 -17 -300 46 -367 l32 -34 -71 -2
c-39 -2 -134 -3 -211 -3 l-140 -1 0 -164 0 -165 1002 -3 1002 -2 -29 -81 c-52
-140 -174 -435 -297 -719 -147 -338 -433 -970 -446 -988 -8 -10 -101 -12 -438
-10 l-429 3 0 -327 0 -328 -55 0 -55 0 0 785 0 785 -480 0 -479 0 -41 -60
c-23 -33 -38 -65 -34 -72 4 -6 3 -8 -3 -5 -5 4 -38 -30 -73 -73 -84 -107 -266
-280 -375 -358 -343 -243 -794 -399 -1355 -468 -183 -23 -864 -27 -1055 -6
-253 27 -518 78 -707 136 l-48 14 0 -389 0 -390 -65 3 -66 3 1 410 0 410 -62
24 c-137 52 -458 231 -481 268 -3 5 21 106 54 224 78 279 207 797 255 1022
l37 177 244 0 243 0 0 170 0 170 -213 0 -214 0 5 100 c4 87 1 109 -21 183 -41
130 -130 256 -258 362 l-67 56 35 82 c72 169 286 855 307 983 9 50 -12 107
-45 124 -16 9 -308 12 -1195 13 -1170 1 -1174 1 -1201 -19 -42 -31 -50 -78
-29 -166 50 -207 238 -809 293 -937 l19 -45 -70 -56 c-240 -191 -342 -393
-316 -630 l5 -45 -243 -3 -242 -2 0 -170 0 -170 271 -2 272 -3 38 -180 c22
-99 68 -298 104 -443 36 -145 65 -268 65 -275 0 -9 -48 -12 -185 -12 l-185 0
0 -812 0 -813 -70 0 -70 0 0 813 0 812 -119 -5 -120 -5 -50 -75 c-241 -356
-572 -598 -1026 -748 -334 -112 -801 -182 -1202 -182 l-133 0 -2 -362 -3 -363
-42 0 c-42 0 -43 1 -48 40 -4 22 -5 185 -3 363 l3 322 -126 0 c-243 0 -603 38
-856 91 -587 122 -1007 365 -1304 755 l-74 97 -110 -7 c-60 -3 -161 -6 -222
-6 l-113 0 0 -830 0 -831 -62 3 -63 3 -3 828 -2 829 -135 -8 c-92 -4 -135 -3
-135 4 0 6 62 167 138 359 162 408 281 716 319 828 l28 80 108 3 107 3 0 144
0 145 -59 0 -58 0 -5 63 c-9 105 -62 188 -176 274 -91 69 -201 122 -511 247
l-264 106 -778 0 -777 0 -30 -72 c-47 -113 -55 -155 -54 -268 2 -153 40 -266
107 -318 14 -11 25 -23 25 -26 0 -3 -63 -6 -140 -6 l-140 0 0 -145 0 -145 603
-1 c460 -1 948 -5 984 -9 8 -1 -113 -381 -220 -695 -80 -232 -206 -587 -209
-590 -2 -2 -104 -5 -227 -9 l-224 -5 -71 -69 c-39 -38 -101 -92 -138 -121
l-68 -53 -2 -686 -3 -687 -62 -3 -63 -3 0 646 c0 355 -2 645 -4 645 -2 0 -45
-22 -97 -49 -306 -161 -728 -273 -1209 -320 -63 -7 -130 -14 -147 -17 l-33 -5
-2 -447 -3 -447 -42 -3 -43 -3 -2 447 -3 448 -55 -3 c-245 -14 -542 -18 -1377
-17 l-963 1 0 -57 0 -58 -2005 0 -2005 0 0 58 0 57 -1060 -3 -1060 -2 0 182 0
183 -262 -17 c-1728 -111 -2876 -227 -3468 -348 -478 -98 -591 -193 -340 -289
496 -191 2262 -363 5430 -531 240 -13 1066 -51 1715 -80 967 -43 2600 -100
4275 -150 1034 -31 3040 -79 4335 -105 7539 -149 16332 -183 24365 -95 3645
40 7529 112 10200 190 2163 63 3644 115 5087 180 888 40 1444 68 2173 110
2245 130 3719 274 4315 422 272 67 362 119 326 187 -25 46 -199 107 -459 161
-583 119 -1862 248 -3427 345 -137 8 -262 17 -277 20 l-28 5 0 -185 0 -185
-325 0 c-180 0 -325 4 -325 9 0 5 7 14 15 21 26 22 117 172 161 266 55 117
109 295 137 449 28 159 31 539 4 710 -17 114 -55 268 -81 330 l-15 35 -493 0
-494 0 -56 48 c-68 58 -99 94 -128 152 -26 52 -37 148 -22 203 l10 37 -52 0
c-61 0 -116 31 -182 101 -39 42 -114 143 -114 154 0 3 7 5 15 5 8 0 32 -26 54
-58 50 -74 142 -159 185 -170 50 -14 110 -1 114 25 2 16 -15 35 -70 79 -153
123 -175 158 -202 317 -20 117 -42 192 -67 234 -14 23 -16 33 -8 39 28 17 71
-90 99 -251 30 -168 45 -194 151 -279 38 -31 71 -56 74 -56 12 0 3 90 -14 147
-29 97 -35 154 -17 178 15 19 15 18 16 -24 0 -24 12 -86 26 -138 18 -65 25
-113 22 -152 -2 -36 1 -56 8 -56 11 0 95 98 127 147 30 48 38 110 22 166 -26
86 -79 135 -200 182 -117 45 -143 72 -185 196 -36 104 -94 154 -178 154 -114
0 -142 -118 -68 -286 50 -115 53 -143 20 -244 -58 -183 -31 -249 163 -412 119
-99 136 -133 144 -283 3 -66 10 -128 14 -137 6 -15 -2 -17 -62 -20 l-68 -3
-23 -70 c-111 -341 -122 -802 -26 -1173 29 -110 29 -111 7 -106 -10 2 -227 13
-483 24 -256 11 -557 25 -670 30 -112 6 -214 10 -227 10 l-23 0 -2 -262 -3
-263 -762 -3 -763 -2 0 -321 0 -320 -47 3 -48 3 0 317 0 318 -187 0 -188 0 0
305 0 305 -124 0 c-68 0 -144 3 -170 6 l-46 7 0 -622 0 -621 -65 0 -65 0 0
619 0 619 -102 6 c-57 3 -189 8 -295 12 l-191 6 -7 -66 -7 -66 53 -62 c29 -35
58 -70 63 -79 15 -21 -30 26 -79 83 l-40 47 -100 11 c-55 7 -101 13 -102 14
-2 2 -6 30 -9 64 l-7 62 -101 0 c-56 0 -124 3 -153 6 l-51 7 -4 -64 -3 -63 53
-51 c28 -28 52 -58 52 -66 0 -8 -9 0 -19 17 -11 18 -35 44 -55 59 l-36 27
-104 -12 -105 -13 -130 -161 c-72 -89 -140 -172 -152 -186 -26 -30 25 43 58
83 13 16 20 34 17 39 -4 6 -2 8 3 5 6 -4 32 21 59 56 26 34 71 89 99 122 l51
60 -11 75 c-10 74 -10 75 -42 78 -28 3 -41 -7 -120 -89 -104 -108 -202 -189
-335 -276 l-98 -64 0 -430 0 -429 -60 0 -60 0 0 395 c0 217 -2 395 -5 395 -2
0 -46 -18 -96 -41 -276 -121 -613 -205 -987 -245 l-163 -18 1 -240 1 -241 -60
-3 -61 -3 0 241 0 240 -64 0 c-43 0 -65 4 -69 13 -2 7 -39 118 -82 246 -65
198 -75 237 -66 258 15 32 13 43 -2 17 -12 -21 -15 -19 -145 58 -133 79 -133
80 -127 111 l6 32 -14 -30 c-8 -16 -36 -55 -63 -85 -67 -76 -149 -180 -164
-209 -11 -21 -7 -30 36 -93 26 -39 87 -121 134 -182 47 -61 90 -117 94 -125 7
-11 -7 -12 -85 -7 -217 15 -309 28 -318 45 -5 9 -30 111 -57 228 l-48 212
-132 89 -133 89 -120 -122 c-72 -72 -121 -130 -121 -141 0 -11 34 -76 76 -145
90 -146 94 -155 68 -141 -10 5 -91 33 -179 61 -88 29 -207 74 -265 100 l-105
48 -3 -404 -2 -403 -65 0 -65 0 0 445 0 444 -29 15 c-46 24 -220 158 -292 224
-37 34 -70 58 -74 54 -5 -4 -6 -2 -2 4 3 5 -21 41 -53 78 -33 38 -70 84 -82
102 l-23 34 -105 0 c-58 0 -169 3 -248 7 l-142 6 0 -714 1 -714 -46 -3 -45 -3
0 714 0 715 -232 6 c-128 4 -405 10 -616 14 l-382 7 0 -407 0 -408 -1160 0
-1160 0 0 425 0 425 -284 0 c-156 0 -291 3 -300 6 -15 6 -16 -65 -16 -750 l0
-756 -50 0 -50 0 0 755 0 755 -233 0 c-129 0 -368 3 -533 7 l-299 6 3 -811 2
-812 -50 0 -50 0 2 810 3 809 -177 3 -178 3 -2 -435 -3 -435 -64 -3 c-45 -2
-67 1 -72 10 -5 7 -9 -102 -9 -242 1 -140 1 -292 0 -337 l0 -83 -50 0 -49 0
-3 58 c-2 31 -1 575 2 1207 l5 1150 303 -4 302 -4 0 535 c0 294 -3 537 -6 541
-8 8 -98 -25 -384 -140 -336 -135 -713 -297 -794 -341 -103 -56 -108 -66 -117
-224 -4 -73 -16 -203 -27 -288 -34 -253 -63 -676 -82 -1185 -6 -159 -14 -371
-18 -470 l-7 -180 -487 -3 -487 -2 -6 42 c-15 113 -141 1553 -190 2178 -19
250 -39 491 -43 535 l-7 80 -599 3 c-330 1 -603 -1 -607 -5 -4 -5 -1 -309 6
-678 13 -643 18 -813 31 -1119 l6 -139 -317 8 -318 7 6 -23 c21 -88 156 -872
152 -880 -4 -5 -107 -9 -246 -9 l-241 0 9 623 c4 342 8 800 8 1017 0 352 -2
398 -17 426 -27 49 -171 179 -342 309 -87 66 -222 169 -299 228 -78 59 -173
136 -212 170 l-69 62 -636 -3 c-349 -1 -642 -2 -652 -2 -19 0 -59 -65 -96
-158 -23 -60 -26 -80 -26 -192 1 -106 4 -134 24 -185 30 -78 44 -100 99 -157
l45 -48 -205 0 -206 0 -7 -165 c-4 -91 -5 -169 -1 -175 4 -6 282 -8 832 -4
l826 7 -6 -64 c-11 -100 -102 -800 -165 -1264 l-57 -420 -234 -3 c-129 -1
-238 1 -242 5 -7 8 -30 147 -99 595 -16 103 -34 217 -41 253 l-11 65 -214 0
-214 0 0 -855 0 -855 -55 0 -55 0 0 855 0 855 -475 0 -475 0 0 22 c0 12 13
121 30 242 57 431 75 646 74 896 0 199 -9 219 -105 267 -37 17 -78 35 -93 39
l-26 6 0 -1386 0 -1385 30 -16 c17 -9 30 -18 30 -21 0 -2 -13 2 -29 10 -16 9
-30 14 -32 11 -2 -2 -3 -62 -1 -134 l3 -130 127 -4 127 -3 -128 -2 -129 -2 4
-37 3 -38 -45 0 -45 0 4 180 3 180 -101 12 c-88 11 -157 31 -270 80 -12 5 -13
-23 -10 -173 l4 -179 -52 -3 -53 -3 0 328 0 328 -150 -3 c-89 -2 -150 1 -150
6 0 6 50 103 110 216 61 114 128 242 150 286 l40 80 0 605 0 605 50 0 50 0 1
-507 c0 -373 3 -502 11 -485 14 29 30 29 23 0 -17 -77 -25 -249 -25 -588 l0
-386 117 -29 c107 -27 118 -32 135 -61 20 -34 95 -90 106 -79 4 4 7 626 7
1383 l0 1377 -115 38 c-63 21 -263 80 -445 132 -181 52 -341 98 -355 102 -24
8 -26 16 -52 198 -14 104 -25 191 -23 193 2 2 25 -13 52 -34 128 -98 210 -113
708 -124 208 -5 382 -7 385 -5 3 2 77 6 165 10 88 4 162 9 164 11 6 6 14 284
8 284 -24 0 -774 64 -937 80 l-205 21 -33 32 c-58 55 -255 278 -250 282 3 3
54 -4 114 -15 280 -50 613 -94 639 -84 17 7 75 101 210 344 146 261 415 760
415 769 0 9 -202 131 -229 138 -14 3 -33 -22 -91 -119 -213 -358 -472 -768
-485 -768 -3 0 -99 31 -213 69 -335 111 -660 245 -760 312 -25 17 -101 50
-170 74 -69 25 -126 46 -128 48 -2 2 -6 59 -10 128 -5 97 -3 139 10 192 9 38
16 74 16 82 0 8 -22 40 -50 71 -43 49 -50 63 -50 98 0 64 46 115 91 101 11 -4
38 -31 60 -62 35 -47 43 -53 55 -41 12 12 12 20 -2 56 -23 58 -8 91 70 145 39
27 75 64 99 101 59 89 118 106 208 60 48 -24 52 -24 75 -9 68 45 56 157 -26
237 -58 56 -185 120 -295 148 -90 23 -227 26 -291 6z m-6715 -2267 c61 -21 79
-97 35 -148 -54 -64 -164 -26 -164 56 0 44 14 69 48 87 33 19 41 19 81 5z
m13441 -1249 c52 -407 136 -1123 147 -1242 l6 -68 -97 0 -96 0 0 103 c0 186
-19 1419 -24 1562 -6 180 0 146 64 -355z m-13144 -457 c-3 -21 -22 -166 -41
-323 -36 -291 -62 -489 -70 -525 -4 -19 -12 -20 -240 -19 -232 2 -237 1 -244
-19 -7 -18 -9 -17 -14 13 -4 19 -29 217 -57 440 -27 223 -52 420 -55 438 l-6
32 366 0 367 0 -6 -37z m13301 -950 c-3 -10 -5 -2 -5 17 0 19 2 27 5 18 2 -10
2 -26 0 -35z m-780 -70 c-2 -21 -4 -4 -4 37 0 41 2 58 4 38 2 -21 2 -55 0 -75z
m-13110 75 c-3 -8 -6 -5 -6 6 -1 11 2 17 5 13 3 -3 4 -12 1 -19z m460 -10 c-3
-8 -6 -5 -6 6 -1 11 2 17 5 13 3 -3 4 -12 1 -19z m13440 -80 c-2 -13 -4 -3 -4
22 0 25 2 35 4 23 2 -13 2 -33 0 -45z m-13890 -15 c-3 -10 -5 -4 -5 12 0 17 2
24 5 18 2 -7 2 -21 0 -30z m-8276 0 c-12 -20 -14 -14 -5 12 4 9 9 14 11 11 3
-2 0 -13 -6 -23z m21376 -35 c-3 -8 -6 -5 -6 6 -1 11 2 17 5 13 3 -3 4 -12 1
-19z m811 -108 c-1 -29 -2 -26 -8 15 -11 69 -10 126 1 65 4 -25 7 -61 7 -80z
m-13901 88 c-3 -8 -6 -5 -6 6 -1 11 2 17 5 13 3 -3 4 -12 1 -19z m-7304 -3
c-3 -9 -8 -14 -10 -11 -3 3 -2 9 2 15 9 16 15 13 8 -4z m7724 -17 c-3 -7 -5
-2 -5 12 0 14 2 19 5 13 2 -7 2 -19 0 -25z m13270 -400 c-1 -79 -3 -15 -3 142
0 157 2 221 3 143 2 -79 2 -207 0 -285z m-590 245 c-2 -27 -3 -5 -3 47 0 52 1
74 3 48 2 -27 2 -69 0 -95z m-12690 95 c-3 -8 -6 -5 -6 6 -1 11 2 17 5 13 3
-3 4 -12 1 -19z m-400 -30 c-3 -7 -5 -2 -5 12 0 14 2 19 5 13 2 -7 2 -19 0
-25z m11599 -165 c-3 -104 -9 -230 -12 -281 l-6 -93 -31 3 c-25 2 -32 8 -31
23 1 35 78 535 82 535 2 0 1 -84 -2 -187z m-18975 124 c-10 -9 -11 -8 -5 6 3
10 9 15 12 12 3 -3 0 -11 -7 -18z m35494 -2 c-16 -13 -38 -34 -48 -47 -17 -21
-18 -21 -8 -2 11 22 67 74 79 74 4 -1 -6 -12 -23 -25z m-36494 -12 c-12 -20
-14 -14 -5 12 4 9 9 14 11 11 3 -2 0 -13 -6 -23z m8386 -10 c-3 -10 -5 -4 -5
12 0 17 2 24 5 18 2 -7 2 -21 0 -30z m380 15 c-3 -8 -6 -5 -6 6 -1 11 2 17 5
13 3 -3 4 -12 1 -19z m13510 -25 c-3 -10 -5 -2 -5 17 0 19 2 27 5 18 2 -10 2
-26 0 -35z m-21306 -40 c-12 -20 -14 -14 -5 12 4 9 9 14 11 11 3 -2 0 -13 -6
-23z m7786 -15 c-3 -7 -5 -2 -5 12 0 14 2 19 5 13 2 -7 2 -19 0 -25z m13530
-10 c-3 -7 -5 -2 -5 12 0 14 2 19 5 13 2 -7 2 -19 0 -25z m14196 -91 c25 -34
71 -91 103 -126 33 -36 52 -61 42 -55 -20 11 -138 152 -179 213 -16 25 -29 54
-28 65 1 17 2 15 9 -7 5 -15 28 -55 53 -90z m-28086 71 c-3 -7 -5 -2 -5 12 0
14 2 19 5 13 2 -7 2 -19 0 -25z m27902 -10 c-6 -13 -29 -46 -50 -74 -21 -29
-35 -55 -31 -59 4 -5 1 -5 -5 -1 -7 4 -13 3 -13 -3 0 -6 -62 -73 -137 -149
-139 -140 -219 -202 -257 -202 -14 1 -8 6 16 14 94 34 398 341 464 469 8 15
17 27 20 27 2 0 -1 -10 -7 -22z m-27892 -50 c-3 -7 -5 -2 -5 12 0 14 2 19 5
13 2 -7 2 -19 0 -25z m340 0 c-3 -8 -6 -5 -6 6 -1 11 2 17 5 13 3 -3 4 -12 1
-19z m13562 -102 c2 -66 -6 -35 -12 49 -4 60 -3 69 3 35 5 -25 9 -63 9 -84z
m14606 101 c4 5 5 3 2 -4 -4 -6 12 -35 36 -65 23 -29 60 -78 81 -108 43 -62
15 -29 -93 110 -41 52 -65 87 -54 77 11 -9 23 -14 28 -10z m-27488 -19 c-3 -8
-6 -5 -6 6 -1 11 2 17 5 13 3 -3 4 -12 1 -19z m12055 -125 c2 -39 0 -69 -4
-66 -5 2 -7 48 -6 101 1 101 6 87 10 -35z m-21590 -7 c-56 -58 -102 -112 -102
-122 0 -9 14 -41 32 -72 17 -30 27 -53 22 -49 -5 3 -22 30 -39 61 -29 53 -29
57 -14 82 19 31 192 212 198 207 2 -1 -42 -50 -97 -107z m8845 72 c-3 -7 -5
-2 -5 12 0 14 2 19 5 13 2 -7 2 -19 0 -25z m-320 -10 c-3 -8 -6 -5 -6 6 -1 11
2 17 5 13 3 -3 4 -12 1 -19z m-7539 -29 c-6 -16 -12 -28 -14 -26 -5 5 13 57
20 57 3 0 0 -14 -6 -31z m7549 -41 c-3 -8 -6 -5 -6 6 -1 11 2 17 5 13 3 -3 4
-12 1 -19z m13890 -45 c-3 -10 -5 -2 -5 17 0 19 2 27 5 18 2 -10 2 -26 0 -35z
m-21515 19 c-6 -2 -12 -13 -12 -24 0 -27 -5 -21 -14 14 -5 23 -4 25 16 20 12
-3 17 -7 10 -10z m6988 -37 c0 -5 -5 -3 -10 5 -5 8 -10 20 -10 25 0 6 5 3 10
-5 5 -8 10 -19 10 -25z m27884 0 c-9 -14 -18 -25 -21 -25 -5 0 5 18 20 38 17
22 18 13 1 -13z m-26957 -7 c-3 -8 -6 -5 -6 6 -1 11 2 17 5 13 3 -3 4 -12 1
-19z m27963 -13 c19 -19 32 -35 29 -35 -3 0 -20 16 -39 35 -19 19 -32 35 -29
35 3 0 20 -16 39 -35z m-28243 -17 c-3 -7 -5 -2 -5 12 0 14 2 19 5 13 2 -7 2
-19 0 -25z m13890 -20 c-2 -13 -4 -5 -4 17 -1 22 1 32 4 23 2 -10 2 -28 0 -40z
m-840 -125 c-2 -32 -3 -6 -3 57 0 63 1 89 3 58 2 -32 2 -84 0 -115z m15620
109 c3 -13 1 -33 -5 -45 -10 -19 -10 -18 -5 9 3 19 -2 45 -12 65 -14 30 -14
32 0 14 9 -11 18 -30 22 -43z m-36299 -17 c0 -16 -2 -15 -8 5 -4 14 -8 34 -8
45 0 16 2 15 8 -5 4 -14 8 -34 8 -45z m34835 40 c-3 -9 -8 -14 -10 -11 -3 3
-2 9 2 15 9 16 15 13 8 -4z m-27196 -47 c-3 -7 -5 -2 -5 12 0 14 2 19 5 13 2
-7 2 -19 0 -25z m28432 -95 c2 -2 0 -3 -5 -3 -11 0 -60 39 -118 94 -22 21 -5
10 39 -25 44 -34 82 -64 84 -66z m-28172 95 c-3 -8 -6 -5 -6 6 -1 11 2 17 5
13 3 -3 4 -12 1 -19z m13630 -45 c-3 -10 -5 -4 -5 12 0 17 2 24 5 18 2 -7 2
-21 0 -30z m550 -10 c-3 -10 -5 -2 -5 17 0 19 2 27 5 18 2 -10 2 -26 0 -35z
m12826 -43 c23 -11 36 -20 29 -20 -36 0 -112 63 -112 94 0 6 9 -4 20 -22 12
-19 38 -41 63 -52z m-34896 38 c-3 -7 -5 -2 -5 12 0 14 2 19 5 13 2 -7 2 -19
0 -25z m18510 0 c-3 -7 -5 -2 -5 12 0 14 2 19 5 13 2 -7 2 -19 0 -25z m570 0
c-3 -7 -5 -2 -5 12 0 14 2 19 5 13 2 -7 2 -19 0 -25z m50 -10 c-3 -7 -5 -2 -5
12 0 14 2 19 5 13 2 -7 2 -19 0 -25z m12673 -108 c103 -155 208 -298 269 -364
l45 -51 -43 40 c-23 22 -79 89 -124 150 -79 107 -238 340 -246 360 -8 23 21
-17 99 -135z m-24767 13 c-124 -152 -182 -226 -247 -317 -31 -43 -56 -74 -56
-69 0 10 163 228 253 339 31 39 57 77 57 83 0 7 3 10 8 8 4 -3 21 12 37 33 17
21 32 36 33 35 2 -2 -36 -52 -85 -112z m497 97 c6 -11 8 -20 6 -20 -3 0 -10 9
-16 20 -6 11 -8 20 -6 20 3 0 10 -9 16 -20z m450 -15 c-13 -22 -19 -43 -16
-57 l6 -23 -11 22 c-9 18 -7 28 11 57 12 20 24 36 27 36 2 0 -5 -16 -17 -35z
m528 -108 c228 -282 282 -362 282 -419 0 -19 -7 -43 -16 -54 -15 -18 -15 -18
-5 3 34 70 4 124 -239 427 -83 105 -144 184 -135 176 9 -7 60 -67 113 -133z
m12739 46 c-2 -21 -4 -6 -4 32 0 39 2 55 4 38 2 -18 2 -50 0 -70z m15023 94
c0 -2 -12 -14 -27 -28 l-28 -24 24 28 c23 25 31 32 31 24z m-36263 -49 c-3 -8
-6 -5 -6 6 -1 11 2 17 5 13 3 -3 4 -12 1 -19z m15374 -1 c-10 -9 -11 -8 -5 6
3 10 9 15 12 12 3 -3 0 -11 -7 -18z m6146 -24 c-3 -10 -5 -2 -5 17 0 19 2 27
5 18 2 -10 2 -26 0 -35z m2450 -5 c-2 -13 -4 -5 -4 17 -1 22 1 32 4 23 2 -10
2 -28 0 -40z m-5480 10 c-3 -7 -5 -2 -5 12 0 14 2 19 5 13 2 -7 2 -19 0 -25z
m630 -80 c-2 -24 -4 -7 -4 37 0 44 2 63 4 43 2 -21 2 -57 0 -80z m-11572 92
c3 -5 1 -10 -4 -10 -6 0 -11 5 -11 10 0 6 2 10 4 10 3 0 8 -4 11 -10z m28550
0 c13 -6 15 -9 5 -9 -8 0 -22 4 -30 9 -18 12 -2 12 25 0z m95 0 c-8 -5 -22 -9
-30 -9 -10 0 -8 3 5 9 27 12 43 12 25 0z m-37092 -92 c23 -38 40 -68 38 -68
-6 0 -96 138 -96 147 0 11 14 -8 58 -79z m920 7 c0 -16 -2 -15 -8 5 -4 14 -8
36 -8 50 0 22 1 22 8 -5 4 -16 8 -39 8 -50z m22110 -48 c30 -51 76 -124 102
-162 61 -92 62 -95 56 -95 -17 0 -226 342 -225 367 1 17 2 16 6 0 3 -11 30
-60 61 -110z m-14588 100 c0 -7 -7 -22 -15 -33 -13 -17 -13 -16 -3 14 13 34
18 40 18 19z m-7843 -204 c40 -62 70 -113 68 -113 -6 0 -140 202 -161 242 -8
16 -19 26 -24 23 -6 -4 -10 0 -10 9 0 8 -3 23 -6 33 -6 19 16 -13 133 -194z
m32483 153 c0 -26 -6 -18 -14 19 -5 22 -4 26 4 15 5 -8 10 -24 10 -34z m466
-66 c93 -112 217 -243 257 -272 37 -26 72 -17 97 25 11 17 20 26 20 19 0 -19
-55 -72 -75 -72 -9 0 -29 9 -45 20 -15 11 -30 16 -34 12 -4 -4 -6 -2 -4 4 2 6
-17 31 -42 55 -48 47 -251 284 -265 309 -13 24 5 4 91 -100z m-13599 78 c-3
-8 -6 -5 -6 6 -1 11 2 17 5 13 3 -3 4 -12 1 -19z m630 0 c-3 -8 -6 -5 -6 6 -1
11 2 17 5 13 3 -3 4 -12 1 -19z m993 17 c0 -5 -89 -45 -99 -45 -8 1 81 49 92
50 4 0 7 -2 7 -5z m-12684 -37 c23 -45 130 -175 160 -195 14 -9 22 -18 19 -21
-8 -8 -49 33 -115 113 -53 65 -97 135 -86 135 3 0 13 -15 22 -32z m7051 -14
c123 -41 144 -51 191 -95 l53 -49 -29 0 c-95 0 -250 47 -346 105 -32 19 -60
35 -61 35 -2 0 -12 -15 -24 -32 -11 -18 -21 -27 -21 -20 0 14 78 99 92 101 4
1 69 -20 145 -45z m17942 6 c0 -10 -3 -8 -9 5 -12 27 -12 43 0 25 5 -8 9 -22
9 -30z m-14502 -2 c-3 -7 -5 -2 -5 12 0 14 2 19 5 13 2 -7 2 -19 0 -25z m2670
25 l-79 -4 5 -87 c5 -87 3 -80 -12 36 l-8 62 86 -2 86 -2 -78 -3z m380 -25
c-3 -7 -5 -2 -5 12 0 14 2 19 5 13 2 -7 2 -19 0 -25z m-26897 12 c0 -5 -7 -10
-15 -10 -52 0 -95 -52 -95 -115 0 -38 41 -95 68 -95 10 0 24 -5 32 -10 10 -6
-393 -10 -1147 -10 l-1163 0 0 125 0 125 1160 0 c767 0 1160 -3 1160 -10z
m12866 -28 c-18 -16 -18 -16 -6 6 6 13 14 21 18 18 3 -4 -2 -14 -12 -24z
m12181 -94 c-2 -24 -4 -5 -4 42 0 47 2 66 4 43 2 -24 2 -62 0 -85z m3333 112
c-8 -5 -19 -10 -25 -10 -5 0 -3 5 5 10 8 5 20 10 25 10 6 0 3 -5 -5 -10z
m-2470 -15 c-14 -8 -29 -14 -35 -14 -5 0 1 6 15 14 14 8 30 14 35 14 6 0 -1
-6 -15 -14z m-20953 -17 c-3 -8 -6 -5 -6 6 -1 11 2 17 5 13 3 -3 4 -12 1 -19z
m452 -42 c6 -22 6 -35 1 -30 -4 5 -11 27 -14 49 -7 45 -2 38 13 -19z m18998
32 c-3 -8 -6 -5 -6 6 -1 11 2 17 5 13 3 -3 4 -12 1 -19z m2733 7 c0 -8 -2 -15
-4 -15 -2 0 -6 7 -10 15 -3 8 -1 15 4 15 6 0 10 -7 10 -15z m1111 -11 c-35
-14 -65 -23 -68 -21 -5 5 97 45 117 45 8 0 -14 -10 -49 -24z m9306 4 c-3 -8
-6 -5 -6 6 -1 11 2 17 5 13 3 -3 4 -12 1 -19z m-13720 -20 c-3 -7 -5 -2 -5 12
0 14 2 19 5 13 2 -7 2 -19 0 -25z m1983 7 c-14 -8 -29 -14 -35 -14 -5 0 1 6
15 14 14 8 30 14 35 14 6 0 -1 -6 -15 -14z m3528 -65 c0 -22 -1 -22 -8 5 -4
17 -8 41 -8 55 0 22 1 22 8 -5 4 -16 8 -41 8 -55z m-16526 43 c-26 -36 -119
-133 -127 -133 -6 0 136 158 143 159 2 1 -5 -11 -16 -26z m11655 -80 c-2 -21
-4 -6 -4 32 0 39 2 55 4 38 2 -18 2 -50 0 -70z m13090 75 c-3 -8 -6 -5 -6 6
-1 11 2 17 5 13 3 -3 4 -12 1 -19z m-32967 -112 c40 -60 67 -105 61 -102 -9 6
-119 169 -146 216 -22 41 19 -16 85 -114z m21140 104 c-19 -11 -39 -19 -45
-19 -5 0 6 8 25 19 19 11 40 19 45 19 6 0 -6 -8 -25 -19z m2420 10 c-8 -5 -19
-10 -25 -10 -5 0 -3 5 5 10 8 5 20 10 25 10 6 0 3 -5 -5 -10z m-7993 -52 c-2
-13 -4 -5 -4 17 -1 22 1 32 4 23 2 -10 2 -28 0 -40z m4230 30 c-3 -8 -6 -5 -6
6 -1 11 2 17 5 13 3 -3 4 -12 1 -19z m13992 -18 c0 -10 -3 -8 -9 5 -12 27 -12
43 0 25 5 -8 9 -22 9 -30z m-33401 -30 c0 -9 -3 -7 -8 5 -5 11 -8 29 -8 40 0
16 2 15 8 -5 4 -14 8 -32 8 -40z m23087 40 c-27 -11 -52 -20 -55 -19 -11 2 76
38 90 38 8 0 -7 -9 -35 -19z m9502 -12 c-3 -8 -6 -5 -6 6 -1 11 2 17 5 13 3
-3 4 -12 1 -19z m-11898 9 c-16 -12 -79 -45 -79 -42 0 7 63 45 74 45 5 0 7 -1
5 -3z m-20262 -29 c-3 -8 -6 -5 -6 6 -1 11 2 17 5 13 3 -3 4 -12 1 -19z
m18410 0 c-3 -8 -6 -5 -6 6 -1 11 2 17 5 13 3 -3 4 -12 1 -19z m4173 2 c-8 -5
-19 -10 -25 -10 -5 0 -3 5 5 10 8 5 20 10 25 10 6 0 3 -5 -5 -10z m9587 -22
c-3 -8 -6 -5 -6 6 -1 11 2 17 5 13 3 -3 4 -12 1 -19z m815 -3 c3 -14 1 -25 -3
-25 -5 0 -9 11 -9 25 0 14 2 25 4 25 2 0 6 -11 8 -25z m-17613 -65 c44 -33 81
-62 81 -65 0 -3 -35 21 -78 53 -43 31 -89 65 -102 75 -19 13 -20 15 -4 8 12
-6 58 -37 103 -71z m7171 76 c0 -2 -9 -6 -20 -9 -11 -3 -18 -1 -14 4 5 9 34
13 34 5z m-22533 -38 c-3 -7 -5 -2 -5 12 0 14 2 19 5 13 2 -7 2 -19 0 -25z
m14783 -62 c0 -6 -9 9 -20 33 -11 24 -20 48 -20 55 0 6 9 -9 20 -33 11 -24 20
-48 20 -55z m5366 69 c-9 -10 -23 -30 -31 -46 -9 -16 -18 -29 -21 -29 -7 0 26
62 44 83 8 9 17 15 20 13 2 -3 -3 -12 -12 -21z m2310 -7 c-15 -12 -37 -35 -47
-52 -10 -17 -19 -25 -19 -17 0 15 72 91 86 91 5 0 -4 -10 -20 -22z m1471 -15
c-3 -10 -5 -4 -5 12 0 17 2 24 5 18 2 -7 2 -21 0 -30z m-24360 5 c-3 -8 -6 -5
-6 6 -1 11 2 17 5 13 3 -3 4 -12 1 -19z m32600 -55 c-2 -16 -4 -3 -4 27 0 30
2 43 4 28 2 -16 2 -40 0 -55z m-12552 57 c25 -11 -1 -11 -35 0 -20 6 -21 8 -5
8 11 0 29 -3 40 -8z m-505 -10 c0 -5 -2 -10 -4 -10 -3 0 -8 5 -11 10 -3 6 -1
10 4 10 6 0 11 -4 11 -10z m2591 -13 c-10 -9 -11 -8 -5 6 3 10 9 15 12 12 3
-3 0 -11 -7 -18z m-21694 -19 c-3 -7 -5 -2 -5 12 0 14 2 19 5 13 2 -7 2 -19 0
-25z m7228 22 c-27 -12 -43 -12 -25 0 8 5 22 9 30 9 10 0 8 -3 -5 -9z m942
-10 c36 -22 48 -40 56 -90 7 -40 -8 -14 -18 33 -3 15 -10 25 -15 22 -5 -3 -12
1 -17 9 -4 8 -22 22 -38 30 -17 9 -23 16 -15 16 8 0 29 -9 47 -20z m8208 -35
c11 -9 -2 -4 -30 11 -27 15 -54 32 -60 37 -16 15 68 -29 90 -48z m2505 45
c-19 -5 -41 -4 -50 0 -10 6 1 9 35 9 48 -1 49 -1 15 -9z m14077 -27 c-3 -10
-5 -4 -5 12 0 17 2 24 5 18 2 -7 2 -21 0 -30z m-33390 5 c-3 -8 -6 -5 -6 6 -1
11 2 17 5 13 3 -3 4 -12 1 -19z m18860 0 c-3 -8 -6 -5 -6 6 -1 11 2 17 5 13 3
-3 4 -12 1 -19z m-11261 -7 c-9 -10 -21 -32 -26 -47 -8 -27 -8 -28 -9 -5 -1
14 9 35 21 48 26 27 39 31 14 4z m11744 9 c8 -5 11 -10 5 -10 -5 0 -17 5 -25
10 -8 5 -10 10 -5 10 6 0 17 -5 25 -10z m875 -11 c14 -6 9 -7 -15 -3 -19 4
-44 11 -55 15 -14 6 -9 7 15 3 19 -4 44 -11 55 -15z m4118 -4 c-3 -9 -8 -14
-10 -11 -3 3 -2 9 2 15 9 16 15 13 8 -4z m-4943 -5 c8 -5 11 -10 5 -10 -5 0
-17 5 -25 10 -8 5 -10 10 -5 10 6 0 17 -5 25 -10z m130 -24 c0 -34 0 -34 -30
-23 -16 6 -30 15 -30 20 0 4 9 3 19 -3 28 -14 31 -13 31 15 0 14 2 25 5 25 3
0 5 -15 5 -34z m2684 -38 c25 -32 43 -58 39 -58 -8 1 -84 93 -98 120 -12 22 6
4 59 -62z m-22186 2 c0 -9 -3 -7 -8 5 -5 11 -8 29 -8 40 0 16 2 15 8 -5 4 -14
8 -32 8 -40z m419 38 c-3 -8 -6 -5 -6 6 -1 11 2 17 5 13 3 -3 4 -12 1 -19z
m18410 0 c-3 -8 -6 -5 -6 6 -1 11 2 17 5 13 3 -3 4 -12 1 -19z m1453 7 c19 -7
28 -13 20 -13 -8 0 -31 6 -50 13 -19 7 -28 13 -20 13 8 0 31 -6 50 -13z m-860
-5 c8 -5 11 -10 5 -10 -5 0 -17 5 -25 10 -8 5 -10 10 -5 10 6 0 17 -5 25 -10z
m1997 -22 c-3 -7 -5 -2 -5 12 0 14 2 19 5 13 2 -7 2 -19 0 -25z m-5995 -80
c16 -16 24 -28 19 -28 -9 0 -26 17 -83 84 l-32 39 -13 -29 c-7 -16 -12 -23
-13 -16 0 7 5 23 11 34 11 20 12 19 47 -18 20 -22 49 -51 64 -66z m1489 34
c21 -19 39 -41 38 -50 0 -12 -3 -11 -9 5 -5 13 -30 38 -56 55 -68 48 -83 62
-46 41 19 -10 51 -33 73 -51z m-16736 7 c20 -28 55 -72 78 -97 23 -26 29 -36
13 -22 -41 37 -145 170 -133 170 3 0 22 -23 42 -51z m20185 41 c18 -12 2 -12
-25 0 -13 6 -15 9 -5 9 8 0 22 -4 30 -9z m153 -3 c3 -8 -1 -14 -8 -14 -7 0
-11 6 -8 14 3 7 6 13 8 13 2 0 5 -6 8 -13z m12038 -14 c-12 -20 -14 -14 -5 12
4 9 9 14 11 11 3 -2 0 -13 -6 -23z m-16617 -52 c51 -53 24 -39 -34 18 -30 30
-41 45 -25 34 17 -12 43 -35 59 -52z m6742 7 c14 -27 24 -51 22 -53 -2 -2 -17
23 -34 55 -17 33 -27 57 -22 54 4 -3 20 -28 34 -56z m-22961 -43 c32 -44 85
-111 118 -149 34 -38 52 -63 41 -56 -10 7 -34 31 -52 54 -49 61 -167 219 -177
236 -15 29 11 -4 70 -85z m19102 63 c-3 -7 -5 -2 -5 12 0 14 2 19 5 13 2 -7 2
-19 0 -25z m1596 21 c30 -16 67 -50 67 -63 0 -6 -7 0 -16 12 -8 12 -32 31 -52
42 -20 10 -33 19 -29 20 5 0 18 -5 30 -11z m2401 -5 c3 -8 2 -12 -4 -9 -6 3
-10 10 -10 16 0 14 7 11 14 -7z m-22398 -48 c-3 -18 -13 -41 -21 -52 -13 -17
-13 -14 0 18 8 21 15 50 16 65 0 15 3 22 6 15 3 -7 2 -28 -1 -46z m15939 2
l50 -53 -48 45 c-39 37 -49 42 -57 30 -5 -8 -10 -12 -10 -8 0 7 11 38 14 38 1
0 24 -24 51 -52z m5045 37 c-13 -16 -73 -35 -105 -34 -11 0 4 6 33 14 30 7 59
18 65 24 16 16 22 14 7 -4z m-13878 -37 c-11 -18 -35 -46 -53 -63 -31 -28 -30
-26 4 13 21 24 43 54 49 68 6 13 13 22 16 20 2 -3 -5 -20 -16 -38z m16408 32
c20 -6 21 -8 5 -8 -11 0 -29 3 -40 8 -25 11 1 11 35 0z m217 4 c-3 -3 -12 -4
-19 -1 -8 3 -5 6 6 6 11 1 17 -2 13 -5z m-3523 -15 c-4 -7 -44 0 -44 7 0 2 11
3 24 2 14 -1 23 -5 20 -9z m3483 5 c-3 -3 -12 -4 -19 -1 -8 3 -5 6 6 6 11 1
17 -2 13 -5z m8410 -19 c-15 -14 -38 -25 -50 -24 -17 1 -15 3 9 10 17 5 37 16
44 24 7 8 15 15 19 15 3 0 -7 -12 -22 -25z m-32510 -7 c-3 -8 -6 -5 -6 6 -1
11 2 17 5 13 3 -3 4 -12 1 -19z m15284 -12 c-6 -14 -16 -26 -23 -26 -9 0 -10
3 -2 8 6 4 15 17 19 30 4 13 9 22 11 19 3 -2 0 -16 -5 -31z m5508 18 c8 -7
-73 -3 -119 6 -34 6 -25 7 35 3 44 -3 82 -7 84 -9z m2042 -1 c13 -16 12 -17
-3 -4 -17 13 -22 21 -14 21 2 0 10 -8 17 -17z m983 3 c-5 -14 -47 -46 -59 -46
-5 0 57 59 62 60 1 0 0 -6 -3 -14z m163 8 c-3 -3 -12 -4 -19 -1 -8 3 -5 6 6 6
11 1 17 -2 13 -5z m71 -1 c-10 -2 -26 -2 -35 0 -10 3 -2 5 17 5 19 0 27 -2 18
-5z m-17001 -25 c-3 -8 -6 -5 -6 6 -1 11 2 17 5 13 3 -3 4 -12 1 -19z m1712
-99 c22 -14 22 -15 3 -15 -12 0 -20 2 -18 4 2 1 -23 28 -55 59 -33 31 -59 60
-59 64 0 5 24 -15 53 -44 28 -29 63 -60 76 -68z m10038 89 c-3 -7 -5 -2 -5 12
0 14 2 19 5 13 2 -7 2 -19 0 -25z m4607 7 c27 -14 44 -25 37 -25 -6 0 -33 11
-59 25 -61 33 -42 32 22 0z m-7127 -17 c-3 -7 -5 -2 -5 12 0 14 2 19 5 13 2
-7 2 -19 0 -25z m4851 25 c-49 -2 -127 -2 -175 0 -49 1 -9 3 87 3 96 0 136 -2
88 -3z m2168 -23 c-31 -27 -106 -67 -106 -56 0 3 19 14 43 24 23 11 51 29 61
41 11 11 23 21 28 21 5 0 -7 -14 -26 -30z m-400 -10 c6 0 19 -7 30 -15 17 -14
17 -14 -11 -3 -16 6 -39 21 -50 32 l-20 20 21 -17 c11 -9 25 -17 30 -17z
m-22889 -2 c-3 -8 -6 -5 -6 6 -1 11 2 17 5 13 3 -3 4 -12 1 -19z m15230 16
c-3 -3 -12 -4 -19 -1 -8 3 -5 6 6 6 11 1 17 -2 13 -5z m7175 -159 c29 -19 49
-35 45 -35 -19 0 -127 84 -182 141 l-60 63 72 -67 c40 -36 96 -82 125 -102z
m-1932 124 c0 -25 -11 -43 -49 -80 -26 -27 -54 -49 -61 -49 -7 0 5 13 26 29
48 34 74 72 74 106 0 14 2 25 5 25 3 0 5 -14 5 -31z m-13433 -1 c-3 -8 -6 -5
-6 6 -1 11 2 17 5 13 3 -3 4 -12 1 -19z m16440 16 c-3 -3 -12 -4 -19 -1 -8 3
-5 6 6 6 11 1 17 -2 13 -5z m-7980 -10 c-3 -3 -12 -4 -19 -1 -8 3 -5 6 6 6 11
1 17 -2 13 -5z m452 3 c-2 -1 -13 -9 -24 -17 -19 -14 -19 -14 -6 3 7 9 18 17
24 17 6 0 8 -1 6 -3z m957 -12 c-11 -8 -25 -15 -30 -15 -6 1 0 7 14 15 32 19
40 18 16 0z m6611 9 c-3 -3 -12 -4 -19 -1 -8 3 -5 6 6 6 11 1 17 -2 13 -5z
m190 0 c-3 -3 -12 -4 -19 -1 -8 3 -5 6 6 6 11 1 17 -2 13 -5z m-8129 -11 c-10
-2 -26 -2 -35 0 -10 3 -2 5 17 5 19 0 27 -2 18 -5z m862 -3 c20 -6 21 -8 5 -8
-11 0 -29 3 -40 8 -25 11 1 11 35 0z m7188 3 c-15 -2 -42 -2 -60 0 -18 2 -6 4
27 4 33 0 48 -2 33 -4z m-7985 -10 c-7 -2 -21 -2 -30 0 -10 3 -4 5 12 5 17 0
24 -2 18 -5z m564 1 c-3 -3 -12 -4 -19 -1 -8 3 -5 6 6 6 11 1 17 -2 13 -5z
m-16200 -36 c-3 -7 -5 -2 -5 12 0 14 2 19 5 13 2 -7 2 -19 0 -25z m15756 25
c-13 -2 -35 -2 -50 0 -16 2 -5 4 22 4 28 0 40 -2 28 -4z m130 0 c-7 -2 -19 -2
-25 0 -7 3 -2 5 12 5 14 0 19 -2 13 -5z m7245 0 c-21 -2 -57 -2 -80 0 -24 2
-7 4 37 4 44 0 63 -2 43 -4z m-15728 -8 c0 -10 -94 -65 -109 -65 -12 0 64 49
107 69 1 0 2 -1 2 -4z m15287 -17 c-3 -8 -6 -5 -6 6 -1 11 2 17 5 13 3 -3 4
-12 1 -19z m-15584 -47 c-2 -3 -18 10 -36 29 l-32 34 36 -30 c20 -16 34 -31
32 -33z m-6806 43 c-3 -3 -12 -4 -19 -1 -8 3 -5 6 6 6 11 1 17 -2 13 -5z
m8750 -12 c-10 -10 -15 -21 -12 -23 2 -3 -5 -5 -15 -5 -17 0 -16 3 8 23 33 27
41 29 19 5z m9793 -28 c0 -9 -44 14 -48 25 -3 8 5 7 22 -4 14 -10 26 -19 26
-21z m-9946 -15 c12 0 15 -3 8 -6 -16 -6 -100 16 -108 28 -2 5 14 2 37 -6 23
-8 51 -15 63 -16z m-8909 -11 c-8 -25 -54 -78 -68 -78 -5 0 5 11 21 25 16 14
33 36 36 50 4 14 9 25 12 25 3 0 2 -10 -1 -22z m7194 6 c10 -9 -35 -3 -49 6
-11 8 -7 9 15 4 17 -4 32 -8 34 -10z m1801 6 c-8 -5 -24 -9 -35 -9 -16 1 -16
2 5 9 35 11 48 11 30 0z m9930 -12 c10 -6 7 -7 -10 -2 -14 3 -32 11 -40 16
-10 6 -7 7 10 2 14 -3 32 -11 40 -16z m1073 2 c14 -11 41 -27 59 -35 18 -8 26
-14 17 -15 -8 0 -37 14 -63 31 -47 32 -85 35 -151 15 -11 -3 -6 0 10 8 43 22
98 20 128 -4z m-12750 3 c-7 -2 -19 -2 -25 0 -7 3 -2 5 12 5 14 0 19 -2 13 -5z
m12527 -14 c13 -9 13 -10 0 -7 -8 3 -34 -10 -58 -29 -24 -18 -49 -33 -55 -33
-6 0 10 13 36 30 26 16 47 34 47 40 0 13 11 13 30 -1z m2914 -3 c-7 -18 -58
-40 -76 -33 -7 3 -3 6 8 6 12 1 32 10 45 21 29 23 30 24 23 6z m-3717 -2 c-3
-3 -12 -4 -19 -1 -8 3 -5 6 6 6 11 1 17 -2 13 -5z m856 -1 c-7 -2 -19 -2 -25
0 -7 3 -2 5 12 5 14 0 19 -2 13 -5z m492 -8 c-16 -8 -37 -14 -45 -14 -8 0 1 7
20 14 46 18 64 17 25 0z m-1275 -5 c20 -6 21 -8 5 -8 -11 0 -31 4 -45 8 -20 6
-21 8 -5 8 11 0 31 -4 45 -8z m249 -18 c26 -32 77 -52 159 -62 l77 -9 -76 4
c-79 3 -121 18 -172 61 -31 26 -77 31 -121 14 -32 -12 -35 -3 -3 10 37 16 118
6 136 -18z m-186 1 c-7 -2 -19 -2 -25 0 -7 3 -2 5 12 5 14 0 19 -2 13 -5z
m1122 -3 c-11 -5 -47 -8 -80 -8 l-60 1 65 7 c94 9 97 9 75 0z m2343 -7 c-16
-2 -40 -2 -55 0 -16 2 -3 4 27 4 30 0 43 -2 28 -4z m-22663 -31 c-3 -3 -11 0
-18 7 -9 10 -8 11 6 5 10 -3 15 -9 12 -12z m19725 -2 c-8 -5 -22 -9 -30 -9
-10 0 -8 3 5 9 27 12 43 12 25 0z m-57 -17 c-7 -2 -21 -2 -30 0 -10 3 -4 5 12
5 17 0 24 -2 18 -5z"/>
<path d="M55107 14539 c-46 -11 -123 -50 -159 -81 -83 -72 -122 -175 -143
-381 -24 -222 -56 -269 -346 -495 -79 -62 -154 -126 -167 -142 -48 -61 -94
-148 -119 -225 -35 -109 -44 -306 -18 -421 20 -91 31 -118 39 -94 123 376 196
537 291 653 69 84 116 118 208 153 40 15 131 53 202 84 72 32 138 61 148 64 9
3 22 17 29 30 9 22 6 37 -26 105 -20 44 -36 86 -36 93 0 6 -14 27 -32 45 -53
55 -40 133 23 133 19 0 30 -6 34 -20 11 -35 25 -22 25 24 l0 43 63 6 c84 8
166 40 228 89 28 22 55 36 59 32 18 -19 40 -108 40 -159 0 -54 13 -74 23 -35
7 26 43 26 57 1 20 -37 11 -77 -25 -121 -19 -23 -35 -47 -35 -54 0 -6 -15 -43
-34 -82 -47 -98 -42 -105 121 -179 70 -32 170 -75 221 -96 120 -49 147 -66
213 -136 93 -97 183 -249 249 -418 13 -33 28 -64 32 -69 14 -17 8 152 -8 232
-33 163 -102 286 -208 370 -154 123 -299 289 -356 406 -24 49 -32 87 -45 199
-19 172 -29 215 -62 284 -59 121 -166 174 -347 172 -55 -1 -118 -5 -139 -10z"/>
<path d="M20328 14494 c-60 -32 -58 2 -58 -874 0 -879 -2 -843 60 -875 18 -9
56 -15 102 -15 l73 0 -31 19 c-67 41 -64 7 -64 859 0 423 3 783 6 801 6 31 34
66 70 88 30 19 -123 16 -158 -3z"/>
<path d="M41000 14496 c0 -2 8 -10 18 -17 15 -13 16 -12 3 4 -13 16 -21 21
-21 13z"/>
<path d="M27746 13921 c-3 -5 1 -11 9 -14 9 -4 12 -1 8 9 -6 16 -10 17 -17 5z"/>
<path d="M37680 13831 c0 -23 2 -41 4 -41 8 0 12 71 4 76 -4 3 -8 -13 -8 -35z"/>
<path d="M27300 13836 c0 -2 8 -10 18 -17 15 -13 16 -12 3 4 -13 16 -21 21
-21 13z"/>
<path d="M27792 13795 c0 -16 2 -22 5 -12 2 9 2 23 0 30 -3 6 -5 -1 -5 -18z"/>
<path d="M27172 13760 c0 -14 2 -19 5 -12 2 6 2 18 0 25 -3 6 -5 1 -5 -13z"/>
<path d="M37672 13760 c0 -14 2 -19 5 -12 2 6 2 18 0 25 -3 6 -5 1 -5 -13z"/>
<path d="M38020 13741 c0 -6 4 -13 10 -16 6 -3 7 1 4 9 -7 18 -14 21 -14 7z"/>
<path d="M37656 13694 c-4 -14 -5 -28 -3 -31 3 -2 8 8 11 23 4 14 5 28 3 31
-3 2 -8 -8 -11 -23z"/>
<path d="M27771 13674 c0 -11 3 -14 6 -6 3 7 2 16 -1 19 -3 4 -6 -2 -5 -13z"/>
<path d="M38050 13688 c0 -3 14 -22 30 -43 17 -21 30 -34 30 -29 -1 10 -60 82
-60 72z"/>
<path d="M44930 13663 c-89 -41 -213 -82 -283 -93 -36 -5 -74 -14 -84 -18 -25
-9 -86 -78 -158 -177 -82 -111 -241 -317 -414 -533 l-146 -183 -100 -48 c-124
-61 -349 -151 -849 -342 -214 -82 -391 -150 -393 -153 -5 -5 44 -206 52 -215
4 -3 29 -8 57 -11 l51 -5 17 -60 17 -60 204 -3 204 -2 195 46 c586 138 878
220 940 264 l27 19 9 -181 9 -181 -22 -10 -23 -10 0 -559 0 -559 713 3 712 3
0 163 0 162 -197 3 c-183 2 -221 6 -184 20 23 9 63 107 82 197 13 65 15 115
11 224 -5 144 -19 212 -69 329 -19 43 -19 49 -5 60 15 11 14 24 -3 144 -35
251 -52 496 -46 667 3 89 9 235 12 326 9 247 -22 423 -102 584 -50 101 -141
217 -169 215 -5 0 -35 -12 -65 -26z"/>
<path d="M55415 13629 c-4 -6 -5 -12 -2 -15 2 -3 7 2 10 11 7 17 1 20 -8 4z"/>
<path d="M37715 13570 c27 -27 51 -50 54 -50 3 0 -17 23 -44 50 -27 28 -51 50
-54 50 -3 0 17 -22 44 -50z"/>
<path d="M27210 13601 c0 -6 4 -13 10 -16 6 -3 7 1 4 9 -7 18 -14 21 -14 7z"/>
<path d="M38102 13580 c0 -14 2 -19 5 -12 2 6 2 18 0 25 -3 6 -5 1 -5 -13z"/>
<path d="M27230 13561 c0 -6 4 -13 10 -16 6 -3 7 1 4 9 -7 18 -14 21 -14 7z"/>
<path d="M55376 13535 c-9 -26 -7 -32 5 -12 6 10 9 21 6 23 -2 3 -7 -2 -11
-11z"/>
<path d="M27265 13510 c10 -11 20 -20 23 -20 3 0 -3 9 -13 20 -10 11 -20 20
-23 20 -3 0 3 -9 13 -20z"/>
<path d="M27665 13483 c-22 -19 -31 -31 -20 -25 19 9 74 63 64 62 -2 -1 -22
-17 -44 -37z"/>
<path d="M37810 13485 c13 -14 26 -25 28 -25 3 0 -5 11 -18 25 -13 14 -26 25
-28 25 -3 0 5 -11 18 -25z"/>
<path d="M55356 13485 c-9 -26 -7 -32 5 -12 6 10 9 21 6 23 -2 3 -7 -2 -11
-11z"/>
<path d="M55110 13481 c0 -6 4 -13 10 -16 6 -3 7 1 4 9 -7 18 -14 21 -14 7z"/>
<path d="M11598 13472 l-328 -2 0 -315 0 -315 -225 0 -225 0 2 -297 3 -298
1567 0 1568 0 0 60 0 60 -787 0 -788 0 -3 178 -2 177 790 0 790 0 0 60 0 60
-125 0 -124 0 -3 66 -3 66 -500 2 -500 1 -3 183 -2 182 505 0 505 0 0 65 0 65
-892 2 c-491 2 -1040 2 -1220 0z"/>
<path d="M27300 13476 c0 -3 9 -10 20 -16 11 -6 20 -8 20 -6 0 3 -9 10 -20 16
-11 6 -20 8 -20 6z"/>
<path d="M37850 13456 c0 -2 14 -14 30 -26 17 -12 30 -19 30 -16 0 2 -13 14
-30 26 -16 12 -30 19 -30 16z"/>
<path d="M55136 13427 c3 -10 9 -15 12 -12 3 3 0 11 -7 18 -10 9 -11 8 -5 -6z"/>
<path d="M38034 13408 l-19 -23 23 19 c12 11 22 21 22 23 0 8 -8 2 -26 -19z"/>
<path d="M55326 13415 c-9 -26 -7 -32 5 -12 6 10 9 21 6 23 -2 3 -7 -2 -11
-11z"/>
<path d="M37920 13406 c0 -2 7 -7 16 -10 8 -3 12 -2 9 4 -6 10 -25 14 -25 6z"/>
<path d="M55150 13395 c0 -5 5 -17 10 -25 5 -8 10 -10 10 -5 0 6 -5 17 -10 25
-5 8 -10 11 -10 5z"/>
<path d="M37988 13383 c7 -3 16 -2 19 1 4 3 -2 6 -13 5 -11 0 -14 -3 -6 -6z"/>
<path d="M55255 13239 c-4 -6 -5 -12 -2 -15 2 -3 7 2 10 11 7 17 1 20 -8 4z"/>
<path d="M55230 13211 c0 -5 5 -13 10 -16 6 -3 10 -2 10 4 0 5 -4 13 -10 16
-5 3 -10 2 -10 -4z"/>
<path d="M21625 13156 c-100 -25 -165 -67 -165 -106 0 -11 14 -32 31 -47 116
-102 179 -308 179 -589 l0 -124 -91 0 c-50 0 -99 -5 -110 -10 -24 -13 -79
-121 -79 -155 0 -14 9 -34 20 -45 19 -19 33 -20 460 -20 427 0 441 1 460 20
11 11 20 31 20 45 0 34 -55 142 -79 155 -11 5 -63 10 -117 10 l-97 0 7 113
c16 265 -49 589 -139 695 -58 67 -173 89 -300 58z"/>
<path d="M37995 13108 c-13 -39 -329 -1021 -351 -1088 l-25 -80 -269 0 c-182
0 -271 -3 -276 -11 -6 -10 -26 -8 -78 8 -18 5 -18 4 2 -22 12 -15 19 -31 16
-36 -10 -16 -58 -9 -114 16 l-55 25 34 -28 c23 -20 32 -34 28 -45 -9 -23 -54
-14 -141 28 l-70 33 -48 -25 c-28 -15 -72 -27 -108 -30 l-60 -6 0 -43 0 -44
625 0 625 0 0 90 c0 82 -2 90 -19 90 -18 0 -16 9 19 118 245 759 331 1035 324
1042 -18 16 -54 22 -59 8z"/>
<path d="M55841 12733 c-28 -70 -61 -253 -61 -336 0 -27 2 -28 33 -22 46 10
157 56 157 65 0 4 -14 40 -31 81 -17 41 -43 111 -58 157 -27 79 -29 81 -40 55z"/>
<path d="M54644 12684 c-7 -18 -89 -225 -100 -251 -4 -7 15 -15 53 -23 32 -6
69 -14 82 -17 l24 -6 -6 86 c-6 77 -32 216 -43 226 -2 2 -7 -5 -10 -15z"/>
<path d="M54956 12554 c-9 -8 -16 -25 -16 -37 0 -21 83 -137 156 -217 22 -25
63 -77 90 -115 94 -135 128 -174 152 -175 22 0 22 0 6 33 -9 17 -37 64 -62
102 -25 39 -90 144 -144 235 -55 91 -107 171 -115 178 -23 16 -48 15 -67 -4z"/>
<path d="M38152 12392 c-7 -2 -17 -15 -22 -28 -8 -20 0 -37 52 -111 89 -129
110 -155 141 -182 32 -27 140 -184 151 -219 9 -27 64 -92 78 -92 22 0 14 15
-256 469 -87 147 -112 175 -144 163z"/>
<path d="M51530 12020 c0 -5 5 -10 11 -10 5 0 7 5 4 10 -3 6 -8 10 -11 10 -2
0 -4 -4 -4 -10z"/>
<path d="M50523 11883 c-5 -16 -8 -93 -8 -173 0 -139 1 -147 28 -202 30 -61
78 -107 139 -136 21 -9 38 -20 38 -24 0 -5 -70 -8 -155 -8 l-155 0 0 -140 0
-140 198 0 c108 0 441 0 740 0 l542 0 0 -27 c0 -16 -5 -48 -11 -72 -5 -24 -8
-45 -6 -47 9 -9 215 -35 392 -49 331 -27 661 -18 836 24 l74 17 17 51 c28 83
51 269 44 354 -12 146 -52 227 -143 293 -62 45 -339 184 -468 234 -197 78
-107 72 -1154 72 l-941 0 -7 -27z"/>
<path d="M42043 11778 c-31 -15 -29 -30 2 -16 14 6 25 15 25 20 0 9 1 10 -27
-4z"/>
<path d="M54614 11757 c-34 -19 -117 -218 -147 -352 l-14 -60 -296 -3 -297 -2
0 -140 0 -140 188 -2 c103 -2 289 -2 414 0 l227 3 0 122 c1 163 23 248 89 336
36 48 119 84 196 83 173 0 226 -95 228 -403 l1 -139 42 0 42 0 6 173 c5 186
17 244 61 301 13 18 41 41 62 51 42 20 129 22 193 5 60 -16 132 -89 159 -162
29 -76 46 -216 38 -305 l-7 -73 408 3 408 2 0 145 0 145 -289 5 -288 5 -18 72
c-10 39 -32 104 -49 145 -32 75 -97 188 -109 188 -996 4 -1236 4 -1248 -3z"/>
<path d="M10160 11525 l0 -65 765 0 766 0 -3 63 -3 62 -762 3 -763 2 0 -65z"/>
<path d="M10164 11111 c-2 -2 -4 -30 -4 -62 l0 -58 153 -3 152 -3 3 -62 3 -63
795 0 794 0 -2 -170 -3 -170 -792 0 -793 0 0 -65 0 -65 155 0 155 0 0 -210 0
-210 -395 0 -395 0 0 -60 0 -60 920 0 920 0 0 58 0 59 673 7 c369 4 805 7 967
6 162 -1 368 -1 458 -1 l162 1 0 40 0 40 -685 0 -685 0 0 120 0 120 686 0 685
0 -3 43 -3 42 -237 3 -238 2 0 298 0 297 -958 0 -957 0 -5 63 -5 62 -758 3
c-417 1 -761 0 -763 -2z"/>
<path d="M53071 10854 c0 -11 3 -14 6 -6 3 7 2 16 -1 19 -3 4 -6 -2 -5 -13z"/>
<path d="M53036 10745 c-3 -9 -6 -22 -5 -28 0 -7 5 -1 10 12 5 13 8 26 5 28
-2 2 -6 -3 -10 -12z"/>
<path d="M52996 10615 c-9 -26 -7 -32 5 -12 6 10 9 21 6 23 -2 3 -7 -2 -11
-11z"/>
<path d="M52976 10555 c-3 -9 -6 -22 -5 -28 0 -7 5 -1 10 12 5 13 8 26 5 28
-2 2 -6 -3 -10 -12z"/>
<path d="M52906 10344 c-9 -26 -14 -49 -12 -51 2 -2 11 17 20 43 9 26 14 49
12 51 -2 2 -11 -17 -20 -43z"/>
<path d="M52436 10274 c-4 -14 -5 -28 -3 -31 3 -2 8 8 11 23 4 14 5 28 3 31
-3 2 -8 -8 -11 -23z"/>
<path d="M52421 10204 c0 -11 3 -14 6 -6 3 7 2 16 -1 19 -3 4 -6 -2 -5 -13z"/>
<path d="M52401 10124 c0 -11 3 -14 6 -6 3 7 2 16 -1 19 -3 4 -6 -2 -5 -13z"/>
<path d="M52391 10084 c0 -11 3 -14 6 -6 3 7 2 16 -1 19 -3 4 -6 -2 -5 -13z"/>
<path d="M52816 10085 c-9 -26 -7 -32 5 -12 6 10 9 21 6 23 -2 3 -7 -2 -11
-11z"/>
<path d="M52381 10044 c0 -11 3 -14 6 -6 3 7 2 16 -1 19 -3 4 -6 -2 -5 -13z"/>
<path d="M52371 10004 c0 -11 3 -14 6 -6 3 7 2 16 -1 19 -3 4 -6 -2 -5 -13z"/>
<path d="M52361 9964 c0 -11 3 -14 6 -6 3 7 2 16 -1 19 -3 4 -6 -2 -5 -13z"/>
<path d="M52351 9924 c0 -11 3 -14 6 -6 3 7 2 16 -1 19 -3 4 -6 -2 -5 -13z"/>
<path d="M52341 9884 c0 -11 3 -14 6 -6 3 7 2 16 -1 19 -3 4 -6 -2 -5 -13z"/>
<path d="M52736 9865 c-3 -9 -6 -22 -5 -28 0 -7 5 -1 10 12 5 13 8 26 5 28 -2
2 -6 -3 -10 -12z"/>
<path d="M52321 9804 c0 -11 3 -14 6 -6 3 7 2 16 -1 19 -3 4 -6 -2 -5 -13z"/>
<path d="M52696 9755 c-9 -26 -7 -32 5 -12 6 10 9 21 6 23 -2 3 -7 -2 -11 -11z"/>
<path d="M33751 9303 c1 -247 4 -437 6 -423 75 415 154 848 158 858 3 9 -17
12 -80 12 l-85 0 1 -447z"/>
<path d="M52301 9724 c0 -11 3 -14 6 -6 3 7 2 16 -1 19 -3 4 -6 -2 -5 -13z"/>
<path d="M52291 9684 c0 -11 3 -14 6 -6 3 7 2 16 -1 19 -3 4 -6 -2 -5 -13z"/>
<path d="M52281 9644 c0 -11 3 -14 6 -6 3 7 2 16 -1 19 -3 4 -6 -2 -5 -13z"/>
<path d="M52656 9645 c-9 -26 -7 -32 5 -12 6 10 9 21 6 23 -2 3 -7 -2 -11 -11z"/>
<path d="M52271 9604 c0 -11 3 -14 6 -6 3 7 2 16 -1 19 -3 4 -6 -2 -5 -13z"/>
<path d="M52636 9595 c-3 -9 -6 -22 -5 -28 0 -7 5 -1 10 12 5 13 8 26 5 28 -2
2 -6 -3 -10 -12z"/>
<path d="M52261 9564 c0 -11 3 -14 6 -6 3 7 2 16 -1 19 -3 4 -6 -2 -5 -13z"/>
<path d="M9990 9438 l0 -63 293 0 c160 0 574 1 920 3 l627 2 0 60 0 60 -920 0
-920 0 0 -62z"/>
<path d="M52241 9484 c0 -11 3 -14 6 -6 3 7 2 16 -1 19 -3 4 -6 -2 -5 -13z"/>
<path d="M52596 9485 c-9 -26 -7 -32 5 -12 6 10 9 21 6 23 -2 3 -7 -2 -11 -11z"/>
<path d="M52576 9435 c-9 -26 -7 -32 5 -12 6 10 9 21 6 23 -2 3 -7 -2 -11 -11z"/>
<path d="M52536 9325 c-9 -26 -7 -32 5 -12 6 10 9 21 6 23 -2 3 -7 -2 -11 -11z"/>
<path d="M52516 9275 c-9 -26 -7 -32 5 -12 6 10 9 21 6 23 -2 3 -7 -2 -11 -11z"/>
</g>
</svg>
